<svg width="52" height="47" viewBox="0 0 420 389" fill="none" xmlns="http://www.w3.org/2000/svg">
<path fill-rule="evenodd" clip-rule="evenodd" d="M177.35 179.486C167.09 181.293 156.652 179.136 148.079 174.844C138.662 170.128 136.591 161.394 141.41 150.239C145.812 140.051 153.7 133.339 155.28 129.402C159.535 118.799 150.352 110.967 142.207 108.712C131.532 105.757 19.3761 107.47 0 108.044C17.3828 119.366 27.9583 119.019 44.4386 138.476C55.0711 151.029 52.1299 187.286 64.0369 194.909C70.7773 199.224 103.655 197.647 112.775 196.386L119.17 227.461C102.576 229.275 90.8251 228.26 75.021 226.829C75.6023 236.205 81.397 258.618 86.9828 263.947C95.4391 272.017 119.384 269.541 132.299 269.262L142.443 302.018L114.616 303.361C103.683 303.888 98.14 302.922 107.28 320.936C111.602 329.452 120.116 343.667 126.318 349.967C170.105 394.455 237.047 402.599 281.036 363.132C289.62 355.43 296.374 346.7 302.993 337.138C307.573 330.521 316.067 317.035 316.782 308.369L315.918 304.239L277 302.024L287.238 269.294C298.621 269.51 323.88 271.638 331.885 264.662C337.264 259.974 343.818 236.24 344.406 226.829C328.599 228.265 316.853 229.271 300.635 227.541L306.841 196.428C315.998 197.684 346.928 199.045 354.517 195.374C366.899 189.386 364.944 150.689 374.372 139.177C382.469 129.289 391.31 122.584 402.856 116.957C408.299 114.305 415.923 111.019 419.411 108.052C403.759 107.554 285.423 106.896 278.258 108.444C269.941 110.241 261.431 117.345 263.511 127.389C264.352 131.444 268.213 134.952 270.402 137.839C298.664 175.104 259.541 182.468 242.067 179.506C231.579 150.1 228.293 74.4828 228.089 39.8544C228.845 37.6135 240.519 28.0029 246.301 25.7964L254.953 22.5211C242.996 11.4421 245.957 21.699 229.72 11.7778C226.329 9.70545 227.449 10.7981 224.076 9.32071C219.982 7.52732 218.236 5.05666 213.508 3.9485C202.691 1.41281 197.204 7.22496 185.732 6.35529C175.284 5.5631 169.726 2.03074 161.248 0C162.637 8.44573 167.6 13.9824 172.345 17.2547C174.677 18.8625 174.709 18.6675 176.575 19.6498C176.843 19.7908 177.214 19.9294 177.478 20.0757C183.583 23.4573 181.416 25.4166 185.983 31.6173C193.23 41.4584 193.869 33.4568 192.235 50.2575C191.349 59.3707 190.711 68.8842 190.133 78.13C188.219 108.705 187.007 152.558 177.35 179.486V179.486Z" fill="#003298"/>
<path fill-rule="evenodd" clip-rule="evenodd" d="M264.514 214.336L155.967 214.098C157.022 215.218 157.005 215.209 158.385 216.38C169.04 225.43 165.684 219.898 166.526 241.187C166.988 252.846 167.952 264.293 169.976 275.653C174.434 300.672 180.835 312.281 209.739 312.274C240.14 312.266 244.525 294.459 248.234 274.336C250.218 263.567 251.995 252.685 253.12 241.544C256.341 209.649 252.215 225.439 264.514 214.336V214.336Z" fill="white"/>
<path fill-rule="evenodd" clip-rule="evenodd" d="M125.504 335.853C138.404 359.722 176.725 376.832 206.997 378.616C237.949 380.441 273.747 364.241 291.435 338.52L275.129 322.615C259.945 342.057 236.286 354.558 209.705 354.558C181.935 354.558 157.354 340.912 142.295 319.961C142.099 319.83 141.905 319.705 141.718 319.594L125.504 335.853V335.853Z" fill="white"/>
<path fill-rule="evenodd" clip-rule="evenodd" d="M174.205 255.921C180.991 251.074 184.148 233.831 203.528 234.25C203.26 260.026 202.103 285.918 180.864 296.595L238.405 297.059C217.259 285.759 215.933 260.076 215.751 234.239C235.187 233.869 238.381 251.289 245.057 255.888C245.755 244.452 244.178 232.916 241.843 222.594L177.428 222.596C175.092 232.865 173.53 244.51 174.205 255.921Z" fill="#003298"/>
<path d="M134.439 341.204L144.737 331.309L141.211 327.641L143.305 325.629L152.75 335.459L150.656 337.47L147.148 333.819L136.851 343.713L134.439 341.204ZM150.863 345.476C151.888 344.055 152.963 343.016 154.086 342.356C154.913 341.873 155.809 341.547 156.765 341.379C157.72 341.21 158.622 341.225 159.473 341.42C160.607 341.681 161.742 342.219 162.877 343.038C164.934 344.522 166.114 346.346 166.43 348.513C166.74 350.68 166.075 352.899 164.435 355.173C162.807 357.427 160.921 358.749 158.78 359.138C156.638 359.53 154.54 358.984 152.494 357.506C150.422 356.011 149.227 354.186 148.92 352.036C148.61 349.888 149.257 347.701 150.863 345.476V345.476ZM153.83 347.474C152.69 349.054 152.193 350.516 152.332 351.86C152.475 353.2 153.107 354.278 154.229 355.088C155.355 355.901 156.569 356.16 157.875 355.875C159.18 355.584 160.416 354.63 161.584 353.012C162.738 351.413 163.249 349.966 163.112 348.673C162.98 347.38 162.333 346.315 161.168 345.475C160.007 344.637 158.782 344.359 157.498 344.641C156.211 344.926 154.989 345.869 153.83 347.474V347.474ZM168.849 360.401L172.129 361.299C171.914 362.429 171.998 363.348 172.387 364.067C172.775 364.786 173.461 365.331 174.443 365.708C175.482 366.106 176.351 366.187 177.046 365.948C177.742 365.709 178.204 365.295 178.431 364.705C178.577 364.324 178.588 363.96 178.471 363.607C178.352 363.257 178.053 362.877 177.574 362.47C177.249 362.191 176.478 361.63 175.262 360.779C173.7 359.682 172.689 358.687 172.232 357.787C171.59 356.526 171.514 355.259 172.002 353.986C172.316 353.167 172.842 352.487 173.576 351.949C174.312 351.414 175.185 351.127 176.198 351.087C177.212 351.048 178.329 351.261 179.562 351.734C181.567 352.503 182.909 353.528 183.579 354.808C184.253 356.091 184.328 357.482 183.809 358.992L180.516 357.858C180.696 356.976 180.629 356.269 180.316 355.734C180.003 355.198 179.394 354.754 178.489 354.407C177.556 354.049 176.749 353.963 176.074 354.15C175.638 354.27 175.338 354.536 175.178 354.955C175.032 355.335 175.068 355.722 175.286 356.114C175.56 356.617 176.412 357.355 177.841 358.332C179.272 359.304 180.285 360.138 180.883 360.822C181.485 361.511 181.867 362.279 182.028 363.133C182.189 363.987 182.075 364.92 181.687 365.933C181.335 366.851 180.75 367.616 179.931 368.223C179.111 368.83 178.161 369.151 177.079 369.182C175.995 369.216 174.755 368.963 173.361 368.429C171.333 367.652 169.955 366.588 169.227 365.233C168.499 363.883 168.375 362.272 168.849 360.401V360.401ZM188.881 373.15L190.899 356.085L194.355 356.494L193.56 363.215L200.281 364.01L201.076 357.289L204.532 357.697L202.514 374.762L199.058 374.354L199.94 366.894L193.219 366.099L192.337 373.559L188.881 373.15ZM212.508 374.954L211.204 357.819L214.673 357.555L215.251 365.145L221.665 357.023L226.316 356.669L220.358 363.834L227.956 373.777L223.48 374.118L218.153 366.432L215.584 369.508L215.978 374.689L212.508 374.954ZM235.868 371.614L230.444 355.308L242.514 351.293L243.431 354.049L234.663 356.965L235.867 360.586L244.02 357.875L244.937 360.63L236.784 363.342L238.253 367.76L247.34 364.738L248.257 367.493L235.868 371.614V371.614ZM256.776 363.651L247.4 349.251L250.222 347.413L262.432 353.205L256.149 343.554L258.844 341.8L268.22 356.2L265.307 358.097L253.308 352.431L259.472 361.897L256.776 363.651V363.651ZM278.847 347.282L268.953 336.984L265.284 340.51L263.272 338.416L273.102 328.971L275.114 331.065L271.462 334.574L281.356 344.87L278.847 347.282V347.282Z" fill="#003298"/>
</svg>
